<svg xmlns="http://www.w3.org/2000/svg" width="5" height="16" viewBox="0 0 5 16">
  <g fill="#FFF" fill-rule="evenodd" stroke="#FFF" transform="translate(1 1)">
    <path d="M1.38585157 13.6262457C.600535678 13.6262457 0 13.0256318 0 12.2402137 0 11.4547955.600535678 10.8541816 1.38585157 10.8541816 2.17116745 10.8541816 2.77170313 11.4547955 2.77170313 12.2402137 2.77170313 13.0256318 2.17116745 13.6262457 1.38585157 13.6262457zM2.77170313 6.46814957C2.77170313 6.74535598 2.58692292 6.93016026 2.30975261 6.93016026L.461950522 6.93016026C.184780209 6.93016026 0 6.74535598 0 6.46814957L0 .462010684C0 .184804273.184780209 0 .461950522 0L2.30975261 0C2.58692292 0 2.77170313.184804273 2.77170313.462010684L2.77170313 6.46814957z"/>
  </g>
</svg>
