<svg xmlns="http://www.w3.org/2000/svg" width="33" height="38" viewBox="0 0 33 38">
  <path fill="#272A2C" fill-rule="evenodd" d="M20.1467824,7.81880012 C15.0122056,5.34171113 5.98295437,7.08246263 2.81336674,13.3234854 C0.326190935,18.2109352 3.03333689,24.9760844 6.80658161,27.8302651 C10.6911692,30.7697958 18.9223982,27.2110899 22.9256999,19.5032114 C25.4683532,14.5963639 24.3409576,9.8524572 20.1467824,7.81880012 M17.9955751,18.6500996 C15.9929544,22.5040389 11.8798616,24.2746629 9.93077857,22.8105229 C8.04919962,21.3867301 6.68941937,18.0045435 7.93824466,15.5588788 C9.52614211,12.4393373 14.0372761,11.5641121 16.6043705,12.8063422 C18.7024281,13.8212309 19.2657379,16.1962879 17.9955751,18.6500996 M10.9510987,32.0380188 C10.9611855,32.2463503 10.8657487,32.4403275 10.7086272,32.5613693 C10.6655642,32.5951213 10.1038062,32.9985939 9.20258812,33.2841284 C8.43831791,33.5366867 7.42808459,33.7609244 6.00894731,33.8641203 C0.548876774,34.2435397 -3.23445475,29.7114561 -3.44860559,26.6726091 C-3.45326105,26.6349776 -3.46102014,26.529454 -3.46102014,26.5135478 C-3.47304672,26.3315972 -3.46451173,26.1566298 -3.445114,25.9882575 C-3.27596588,24.9264263 -2.39724911,24.0787459 -1.27528492,23.9976634 C-0.364367936,23.933263 0.453439986,24.3957046 0.902691207,25.1266108 L0.910062341,25.1308783 C0.947305966,25.1855798 0.981058,25.2534719 1.01907753,25.3170964 C1.12809273,25.5153411 1.2355561,25.7260003 1.3403038,25.9343319 C1.64019256,26.5337215 1.92805475,27.1730703 2.32299235,27.7565538 C4.26819582,30.7022917 6.86671454,31.4029374 9.1882338,31.525531 C9.59325822,31.5491962 9.88344813,31.5080731 10.1767417,31.4859597 C10.2147612,31.4859597 10.3261041,31.4816922 10.34395,31.4816922 C10.659357,31.4816922 10.9251058,31.7241637 10.9510987,32.0380188 M23.2950325,30.759321 L23.2950325,30.759321 C22.1575501,31.3513395 21.1892159,31.414576 20.7779842,30.8268251 C20.7066006,30.7275088 20.6670293,30.6200454 20.6414243,30.5071506 L20.6414243,30.4916325 C20.6371568,30.4718468 20.6313374,30.4574925 20.6293977,30.4318875 C20.6235784,30.3958077 20.6193109,30.3601159 20.6193109,30.3252 L20.6193109,30.3054143 C20.6134915,29.9989304 20.7306538,29.6458918 20.9172599,29.3025522 C22.524943,26.3789276 27.4593353,20.5355581 27.4593353,15.3001132 C27.4593353,10.4045163 26.1492132,7.46188205 25.036172,5.57215606 C24.8072788,5.19273664 24.5000189,4.71788042 24.3056538,4.25776648 C24.3056538,4.25776648 24.2994465,4.24186035 24.2994465,4.2379808 C24.243969,4.10297266 24.2160363,3.95554998 24.2160363,3.7995923 C24.2160363,3.16567478 24.7277482,2.65357494 25.3670971,2.65357494 C25.4761123,2.65357494 25.5862913,2.67374857 25.6968583,2.70012947 C25.7026777,2.70750061 25.7104367,2.7117681 25.7104367,2.7117681 C26.2904286,2.89798623 26.9670211,3.27934542 27.6537004,3.79338503 C30.7103933,6.08154022 34.5332962,11.2300834 34.5332962,15.3001132 C34.5332962,22.3143292 26.5499701,29.2753954 23.2950325,30.759321" style="mix-blend-mode:overlay" transform="rotate(-22 15.533 18.27)"/>
</svg>
