<svg xmlns="http://www.w3.org/2000/svg" width="41" height="29" viewBox="0 0 41 29">
  <path fill="#272A2C" fill-rule="evenodd" d="M26.0798757,3.14559485 C20.945299,0.668505862 11.9160477,2.40925735 8.74646011,8.65028015 C6.25928431,13.53773 8.96643026,20.3028792 12.739675,23.1570599 C16.6242626,26.0965905 24.8554916,22.5378846 28.8587933,14.8300061 C31.4014466,9.92315861 30.274051,5.17925193 26.0798757,3.14559485 M23.9286685,13.9768944 C21.9260477,17.8308336 17.812955,19.6014576 15.8638719,18.1373176 C13.982293,16.7135249 12.6225127,13.3313382 13.871338,10.8856735 C15.4592355,7.76613202 19.9703695,6.89090684 22.5374639,8.1331369 C24.6355214,9.14802567 25.1988312,11.5230826 23.9286685,13.9768944 M16.8841921,27.3648135 C16.8942789,27.573145 16.7988421,27.7671223 16.6417206,27.888164 C16.5986576,27.9219161 16.0368996,28.3253887 15.1356815,28.6109231 C14.3714113,28.8634815 13.361178,29.0877191 11.9420407,29.190915 C6.48197014,29.5703344 2.69863862,25.0382509 2.48448778,21.9994039 C2.47983232,21.9617723 2.47207323,21.8562487 2.47207323,21.8403426 C2.46004665,21.6583919 2.46858164,21.4834245 2.48797937,21.3150523 C2.65712749,20.253221 3.53584426,19.4055406 4.65780845,19.3244581 C5.56872543,19.2600577 6.38653336,19.7224994 6.83578458,20.4534055 L6.84315571,20.457673 C6.88039934,20.5123746 6.91415137,20.5802666 6.9521709,20.6438911 C7.0611861,20.8421358 7.16864947,21.0527951 7.27339717,21.2611266 C7.57328593,21.8605162 7.86114811,22.4998651 8.25608572,23.0833485 C10.2012892,26.0290864 12.7998079,26.7297321 15.1213272,26.8523257 C15.5263516,26.875991 15.8165415,26.8348678 16.109835,26.8127544 C16.1478546,26.8127544 16.2591975,26.8084869 16.2770434,26.8084869 C16.5924503,26.8084869 16.8581991,27.0509584 16.8841921,27.3648135 M29.2281259,26.0861157 L29.2281259,26.0861157 C28.0906435,26.6781342 27.1223093,26.7413708 26.7110776,26.1536198 C26.639694,26.0543035 26.6001226,25.9468401 26.5745176,25.8339454 L26.5745176,25.8184272 C26.5702501,25.7986415 26.5644308,25.7842872 26.562491,25.7586822 C26.5566717,25.7226025 26.5524042,25.6869106 26.5524042,25.6519947 L26.5524042,25.6322091 C26.5465849,25.3257251 26.6637471,24.9726866 26.8503532,24.6293469 C28.4580363,21.7057224 33.3924286,15.8623529 33.3924286,10.6269079 C33.3924286,5.73131107 32.0823066,2.78867678 30.9692653,0.898950789 C30.7403722,0.519531364 30.4331123,0.0446751506 30.2387471,-0.415438794 C30.2387471,-0.415438794 30.2325399,-0.431344926 30.2325399,-0.43522447 C30.1770624,-0.570232609 30.1491297,-0.717655289 30.1491297,-0.873612967 C30.1491297,-1.50753049 30.6608416,-2.01963033 31.3001904,-2.01963033 C31.4092056,-2.01963033 31.5193847,-1.9994567 31.6299517,-1.9730758 C31.635771,-1.96570467 31.6435301,-1.96143717 31.6435301,-1.96143717 C32.223522,-1.77521904 32.9001145,-1.39385985 33.5867938,-0.879820238 C36.6434867,1.40833495 40.4663896,6.55687808 40.4663896,10.6269079 C40.4663896,17.6411239 32.4830635,24.6021901 29.2281259,26.0861157" style="mix-blend-mode:overlay" transform="rotate(36 21.466 13.597)"/>
</svg>
